<?xml version="1.0" encoding="UTF-8" standalone="no"?>
<!-- Created with Inkscape (http://www.inkscape.org/) -->

<svg
   xmlns:dc="http://purl.org/dc/elements/1.1/"
   xmlns:cc="http://creativecommons.org/ns#"
   xmlns:rdf="http://www.w3.org/1999/02/22-rdf-syntax-ns#"
   xmlns:svg="http://www.w3.org/2000/svg"
   xmlns="http://www.w3.org/2000/svg"
   xmlns:sodipodi="http://sodipodi.sourceforge.net/DTD/sodipodi-0.dtd"
   xmlns:inkscape="http://www.inkscape.org/namespaces/inkscape"
   width="120mm"
   height="120mm"
   viewBox="0 0 120 120"
   version="1.1"
   id="svg8"
   inkscape:version="0.92.3 (2405546, 2018-03-11)"
   sodipodi:docname="TALN.svg"
   inkscape:export-filename="/home/kariminf/Github/projeduc/1CP_BWeb/img/Bweb01-environnement/access-web.png"
   inkscape:export-xdpi="90"
   inkscape:export-ydpi="90">
  <sodipodi:namedview
     id="base"
     pagecolor="#ffffff"
     bordercolor="#666666"
     borderopacity="1.0"
     inkscape:pageopacity="0"
     inkscape:pageshadow="2"
     inkscape:zoom="0.35355339"
     inkscape:cx="4.5718262"
     inkscape:cy="255.458"
     inkscape:document-units="mm"
     inkscape:current-layer="layer1"
     showgrid="false"
     inkscape:window-width="1366"
     inkscape:window-height="708"
     inkscape:window-x="0"
     inkscape:window-y="0"
     inkscape:window-maximized="1" />
  <defs
     id="defs2">
    <marker
       inkscape:stockid="Arrow2Mend"
       orient="auto"
       refY="0"
       refX="0"
       id="marker11886"
       style="overflow:visible"
       inkscape:isstock="true">
      <path
         inkscape:connector-curvature="0"
         id="path11884"
         style="fill:#ff7d00;fill-opacity:1;fill-rule:evenodd;stroke:#ff7d00;stroke-width:0.625;stroke-linejoin:round;stroke-opacity:1"
         d="M 8.7185878,4.0337352 -2.2072895,0.01601326 8.7185884,-4.0017078 c -1.7454984,2.3720609 -1.7354408,5.6174519 -6e-7,8.035443 z"
         transform="scale(-0.6)" />
    </marker>
    <marker
       inkscape:isstock="true"
       style="overflow:visible"
       id="Arrow2Mend"
       refX="0"
       refY="0"
       orient="auto"
       inkscape:stockid="Arrow2Mend">
      <path
         inkscape:connector-curvature="0"
         transform="scale(-0.6)"
         d="M 8.7185878,4.0337352 -2.2072895,0.01601326 8.7185884,-4.0017078 c -1.7454984,2.3720609 -1.7354408,5.6174519 -6e-7,8.035443 z"
         style="fill:#0000ff;fill-opacity:1;fill-rule:evenodd;stroke:#0000ff;stroke-width:0.625;stroke-linejoin:round;stroke-opacity:1"
         id="path1165" />
    </marker>
    <marker
       inkscape:isstock="true"
       style="overflow:visible"
       id="Arrow1Lend"
       refX="0"
       refY="0"
       orient="auto"
       inkscape:stockid="Arrow1Lend">
      <path
         inkscape:connector-curvature="0"
         transform="matrix(-0.8,0,0,-0.8,-10,0)"
         style="fill:#0000ff;fill-opacity:1;fill-rule:evenodd;stroke:#0000ff;stroke-width:1.00000003pt;stroke-opacity:1"
         d="M 0,0 5,-5 -12.5,0 5,5 Z"
         id="path4701" />
    </marker>
    <marker
       inkscape:isstock="true"
       style="overflow:visible"
       id="Arrow1Lstart"
       refX="0"
       refY="0"
       orient="auto"
       inkscape:stockid="Arrow1Lstart">
      <path
         inkscape:connector-curvature="0"
         transform="matrix(0.8,0,0,0.8,10,0)"
         style="fill:#000000;fill-opacity:1;fill-rule:evenodd;stroke:#000000;stroke-width:1.00000003pt;stroke-opacity:1"
         d="M 0,0 5,-5 -12.5,0 5,5 Z"
         id="path4698" />
    </marker>
    <marker
       inkscape:isstock="true"
       style="overflow:visible"
       id="Arrow1Lend-4"
       refX="0"
       refY="0"
       orient="auto"
       inkscape:stockid="Arrow1Lend">
      <path
         transform="matrix(-0.8,0,0,-0.8,-10,0)"
         style="fill:#000000;fill-opacity:1;fill-rule:evenodd;stroke:#000000;stroke-width:1.00000003pt;stroke-opacity:1"
         d="M 0,0 5,-5 -12.5,0 5,5 Z"
         id="path4701-1"
         inkscape:connector-curvature="0" />
    </marker>
    <marker
       inkscape:isstock="true"
       style="overflow:visible"
       id="Arrow1Lend-8"
       refX="0"
       refY="0"
       orient="auto"
       inkscape:stockid="Arrow1Lend">
      <path
         transform="matrix(-0.8,0,0,-0.8,-10,0)"
         style="fill:#000000;fill-opacity:1;fill-rule:evenodd;stroke:#000000;stroke-width:1.00000003pt;stroke-opacity:1"
         d="M 0,0 5,-5 -12.5,0 5,5 Z"
         id="path4701-8"
         inkscape:connector-curvature="0" />
    </marker>
    <marker
       inkscape:isstock="true"
       style="overflow:visible"
       id="Arrow2Mend-7"
       refX="0"
       refY="0"
       orient="auto"
       inkscape:stockid="Arrow2Mend">
      <path
         transform="scale(-0.6)"
         d="M 8.7185878,4.0337352 -2.2072895,0.01601326 8.7185884,-4.0017078 c -1.7454984,2.3720609 -1.7354408,5.6174519 -6e-7,8.035443 z"
         style="fill:#ff0000;fill-opacity:1;fill-rule:evenodd;stroke:#ff0000;stroke-width:0.625;stroke-linejoin:round;stroke-opacity:1"
         id="path1165-6"
         inkscape:connector-curvature="0" />
    </marker>
    <marker
       inkscape:isstock="true"
       style="overflow:visible"
       id="Arrow2Mend-7-4"
       refX="0"
       refY="0"
       orient="auto"
       inkscape:stockid="Arrow2Mend">
      <path
         transform="scale(-0.6)"
         d="M 8.7185878,4.0337352 -2.2072895,0.01601326 8.7185884,-4.0017078 c -1.7454984,2.3720609 -1.7354408,5.6174519 -6e-7,8.035443 z"
         style="fill:#008000;fill-opacity:1;fill-rule:evenodd;stroke:#008000;stroke-width:0.625;stroke-linejoin:round;stroke-opacity:1"
         id="path1165-6-1"
         inkscape:connector-curvature="0" />
    </marker>
    <marker
       inkscape:isstock="true"
       style="overflow:visible"
       id="Arrow2Mend-7-4-5"
       refX="0"
       refY="0"
       orient="auto"
       inkscape:stockid="Arrow2Mend">
      <path
         transform="scale(-0.6)"
         d="M 8.7185878,4.0337352 -2.2072895,0.01601326 8.7185884,-4.0017078 c -1.7454984,2.3720609 -1.7354408,5.6174519 -6e-7,8.035443 z"
         style="fill:#008000;fill-opacity:1;fill-rule:evenodd;stroke:#008000;stroke-width:0.625;stroke-linejoin:round;stroke-opacity:1"
         id="path1165-6-1-6"
         inkscape:connector-curvature="0" />
    </marker>
    <marker
       inkscape:isstock="true"
       style="overflow:visible"
       id="Arrow2Mend-7-0"
       refX="0"
       refY="0"
       orient="auto"
       inkscape:stockid="Arrow2Mend">
      <path
         transform="scale(-0.6)"
         d="M 8.7185878,4.0337352 -2.2072895,0.01601326 8.7185884,-4.0017078 c -1.7454984,2.3720609 -1.7354408,5.6174519 -6e-7,8.035443 z"
         style="fill:#ff0000;fill-opacity:1;fill-rule:evenodd;stroke:#ff0000;stroke-width:0.625;stroke-linejoin:round;stroke-opacity:1"
         id="path1165-6-8"
         inkscape:connector-curvature="0" />
    </marker>
    <marker
       inkscape:isstock="true"
       style="overflow:visible"
       id="Arrow2Mend-7-2"
       refX="0"
       refY="0"
       orient="auto"
       inkscape:stockid="Arrow2Mend">
      <path
         transform="scale(-0.6)"
         d="M 8.7185878,4.0337352 -2.2072895,0.01601326 8.7185884,-4.0017078 c -1.7454984,2.3720609 -1.7354408,5.6174519 -6e-7,8.035443 z"
         style="fill:#ff0000;fill-opacity:1;fill-rule:evenodd;stroke:#ff0000;stroke-width:0.625;stroke-linejoin:round;stroke-opacity:1"
         id="path1165-6-2"
         inkscape:connector-curvature="0" />
    </marker>
    <marker
       inkscape:isstock="true"
       style="overflow:visible"
       id="Arrow2Mend-7-2-0"
       refX="0"
       refY="0"
       orient="auto"
       inkscape:stockid="Arrow2Mend">
      <path
         transform="scale(-0.6)"
         d="M 8.7185878,4.0337352 -2.2072895,0.01601326 8.7185884,-4.0017078 c -1.7454984,2.3720609 -1.7354408,5.6174519 -6e-7,8.035443 z"
         style="fill:#ff0000;fill-opacity:1;fill-rule:evenodd;stroke:#ff0000;stroke-width:0.625;stroke-linejoin:round;stroke-opacity:1"
         id="path1165-6-2-4"
         inkscape:connector-curvature="0" />
    </marker>
    <marker
       inkscape:isstock="true"
       style="overflow:visible"
       id="Arrow2Mend-7-00"
       refX="0"
       refY="0"
       orient="auto"
       inkscape:stockid="Arrow2Mend">
      <path
         transform="scale(-0.6)"
         d="M 8.7185878,4.0337352 -2.2072895,0.01601326 8.7185884,-4.0017078 c -1.7454984,2.3720609 -1.7354408,5.6174519 -6e-7,8.035443 z"
         style="fill:#ff0000;fill-opacity:1;fill-rule:evenodd;stroke:#ff0000;stroke-width:0.625;stroke-linejoin:round;stroke-opacity:1"
         id="path1165-6-6"
         inkscape:connector-curvature="0" />
    </marker>
    <marker
       inkscape:isstock="true"
       style="overflow:visible"
       id="Arrow2Mend-7-3"
       refX="0"
       refY="0"
       orient="auto"
       inkscape:stockid="Arrow2Mend">
      <path
         transform="scale(-0.6)"
         d="M 8.7185878,4.0337352 -2.2072895,0.01601326 8.7185884,-4.0017078 c -1.7454984,2.3720609 -1.7354408,5.6174519 -6e-7,8.035443 z"
         style="fill:#ff0000;fill-opacity:1;fill-rule:evenodd;stroke:#ff0000;stroke-width:0.625;stroke-linejoin:round;stroke-opacity:1"
         id="path1165-6-10"
         inkscape:connector-curvature="0" />
    </marker>
    <marker
       inkscape:isstock="true"
       style="overflow:visible"
       id="Arrow2Mend-7-00-5"
       refX="0"
       refY="0"
       orient="auto"
       inkscape:stockid="Arrow2Mend">
      <path
         transform="scale(-0.6)"
         d="M 8.7185878,4.0337352 -2.2072895,0.01601326 8.7185884,-4.0017078 c -1.7454984,2.3720609 -1.7354408,5.6174519 -6e-7,8.035443 z"
         style="fill:#ff0000;fill-opacity:1;fill-rule:evenodd;stroke:#ff0000;stroke-width:0.625;stroke-linejoin:round;stroke-opacity:1"
         id="path1165-6-6-0"
         inkscape:connector-curvature="0" />
    </marker>
    <symbol
       id="ThoughtBalloon">
      <title
         id="title35275">Thought Balloon</title>
      <path
         inkscape:connector-curvature="0"
         d="M 44.979167,15.875 C 40.216667,12.170833 31.485417,12.964583 28.575,17.727083 20.108333,12.7 13.49375,27.252083 22.754167,32.54375 c -7.9375,2.645833 -7.9375,13.229167 0.79375,15.08125 -0.529167,7.9375 14.022916,7.672917 15.610416,2.116667 2.645834,6.085416 12.435417,7.672916 15.875,2.38125 3.704167,2.645833 9.525,1.322916 11.377084,-2.38125 2.910416,6.614583 10.847916,5.55625 13.229166,0.264583 C 88.9,51.064583 90.222917,41.804167 87.3125,36.777083 c 6.35,-2.38125 5.820833,-10.31875 0.79375,-12.7 C 92.339583,17.197917 83.608333,8.73125 77.7875,16.404167 74.347917,12.620625 65.352083,12.7 62.970833,16.66875 58.7375,11.641667 48.947917,11.1125 44.979167,15.875 Z"
         style="stroke:none;stroke-width:0.26458332"
         id="path35277" />
      <path
         inkscape:connector-curvature="0"
         d="m 43.65625,14.552083 c -4.7625,-3.704166 -13.49375,-2.910416 -16.404167,1.852084 -8.466666,-5.027084 -15.08125,9.525 -5.820833,14.816666 -7.9375,2.645834 -7.9375,13.229167 0.79375,15.08125 -0.529167,7.9375 14.022917,7.672917 15.610417,2.116667 2.645833,6.085417 12.435416,7.672917 15.875,2.38125 3.704166,2.645833 9.525,1.322917 11.377083,-2.38125 2.910417,6.614583 10.847917,5.55625 13.229167,0.264583 9.260416,1.058334 10.583333,-8.202083 7.672916,-13.229166 6.35,-2.38125 5.820834,-10.31875 0.79375,-12.7 C 91.016667,15.875 82.285417,7.4083333 76.464583,15.08125 73.025,11.297708 64.029167,11.377083 61.647917,15.345833 57.414583,10.31875 47.625,9.7895833 43.65625,14.552083 Z"
         style="fill:#eeeeee;stroke-width:0.92604166"
         id="path35279" />
      <path
         inkscape:connector-curvature="0"
         d="m 43.127083,15.345833 c -4.497916,-3.175 -12.7,-2.910416 -15.345833,1.5875 -9.789583,-3.704166 -12.170833,11.1125 -4.497917,14.022917 -8.73125,3.704167 -5.291666,12.7 0.529167,13.229167 -1.322917,7.672916 12.435417,7.672916 14.022917,1.852083 2.645833,6.614583 11.377083,6.35 15.345833,2.116667 3.439583,2.38125 8.995833,1.058333 10.583333,-2.116667 2.645834,5.820833 10.847917,5.027083 12.7,0.264583 8.202084,1.852084 9.789584,-7.408333 7.14375,-11.377083 6.085417,-1.852083 5.55625,-10.054167 0.79375,-12.170833 C 88.10625,15.875 80.433333,8.9958333 76.464583,16.933333 71.4375,12.805833 65.0875,10.847917 60.854167,16.66875 56.885417,11.377083 47.360417,10.583333 43.127083,15.345833 Z"
         style="fill:#ffffff;stroke:none;stroke-width:0.26458332"
         id="path35281" />
      <ellipse
         cx="30.956249"
         cy="63.235416"
         rx="7.9375"
         ry="5.5562501"
         style="stroke:none;stroke-width:0.26458332"
         id="ellipse35283" />
      <ellipse
         cx="29.897917"
         cy="62.177082"
         rx="7.9375"
         ry="5.5562501"
         style="fill:#eeeeee;stroke-width:0.92604166"
         id="ellipse35285" />
      <ellipse
         cx="29.104166"
         cy="61.647915"
         rx="6.0854168"
         ry="4.4979167"
         style="fill:#ffffff;stroke:none;stroke-width:0.26458332"
         id="ellipse35287" />
      <ellipse
         cx="19.579166"
         cy="72.760414"
         rx="3.96875"
         ry="2.9104166"
         style="stroke:none;stroke-width:0.26458332"
         id="ellipse35289" />
      <ellipse
         cx="18.520834"
         cy="71.70208"
         rx="3.96875"
         ry="2.9104166"
         style="fill:#eeeeee;stroke-width:0.92604166"
         id="ellipse35291" />
      <ellipse
         cx="17.727083"
         cy="71.17292"
         rx="2.1166666"
         ry="1.8520833"
         style="fill:#ffffff;stroke:none;stroke-width:0.26458332"
         id="ellipse35293" />
    </symbol>
  </defs>
  <metadata
     id="metadata5">
    <rdf:RDF>
      <cc:Work
         rdf:about="">
        <dc:format>image/svg+xml</dc:format>
        <dc:type
           rdf:resource="http://purl.org/dc/dcmitype/StillImage" />
        <dc:title></dc:title>
      </cc:Work>
    </rdf:RDF>
  </metadata>
  <g
     transform="translate(0,-177)"
     id="layer1"
     inkscape:groupmode="layer"
     inkscape:label="Calque 1">
    <path
       style="opacity:1;fill:#0000ff;fill-opacity:0.78431374;stroke:none;stroke-width:0.98173374;stroke-linecap:square;stroke-linejoin:miter;stroke-miterlimit:4;stroke-dasharray:none;stroke-dashoffset:0;stroke-opacity:1;paint-order:normal"
       id="path1104-3"
       sodipodi:type="arc"
       sodipodi:cx="45.868824"
       sodipodi:cy="233.01567"
       sodipodi:rx="45"
       sodipodi:ry="45"
       sodipodi:start="4.7053004"
       sodipodi:end="4.70524"
       d="M 45.549841,188.0168 A 45,45 0 0 1 90.867689,232.69601 45,45 0 0 1 46.189166,278.01453 45,45 0 0 1 0.86996908,233.33669 45,45 0 0 1 45.547123,188.01682 l 0.321701,44.99885 z" />
    <path
       style="opacity:1;fill:#ff0000;fill-opacity:0.70588237;stroke:none;stroke-width:0.98173374;stroke-linecap:square;stroke-linejoin:miter;stroke-miterlimit:4;stroke-dasharray:none;stroke-dashoffset:0;stroke-opacity:1;paint-order:normal"
       id="path1104-3-6"
       sodipodi:type="arc"
       sodipodi:cx="69.944565"
       sodipodi:cy="251.25958"
       sodipodi:rx="45"
       sodipodi:ry="45"
       sodipodi:start="4.7053004"
       sodipodi:end="4.70524"
       d="M 69.625581,206.26071 A 45,45 0 0 1 114.94343,250.93992 45,45 0 0 1 70.264907,296.25844 45,45 0 0 1 24.94571,251.5806 45,45 0 0 1 69.622863,206.26073 l 0.321702,44.99885 z" />
    <path
       style="opacity:1;fill:#ffff00;fill-opacity:0.47058824;stroke:none;stroke-width:0.98173374;stroke-linecap:square;stroke-linejoin:miter;stroke-miterlimit:4;stroke-dasharray:none;stroke-dashoffset:0;stroke-opacity:1;paint-order:normal"
       id="path1104"
       sodipodi:type="arc"
       sodipodi:cx="74.348808"
       sodipodi:cy="222.86235"
       sodipodi:rx="45"
       sodipodi:ry="45"
       sodipodi:start="4.7053004"
       sodipodi:end="4.70524"
       d="M 74.029825,177.86348 A 45,45 0 0 1 119.34767,222.54269 45,45 0 0 1 74.669151,267.86121 45,45 0 0 1 29.349953,223.18337 45,45 0 0 1 74.027107,177.8635 l 0.321701,44.99885 z" />
    <flowRoot
       xml:space="preserve"
       id="flowRoot1136"
       style="font-style:normal;font-weight:normal;font-size:40px;line-height:0%;font-family:sans-serif;letter-spacing:0px;word-spacing:0px;fill:#000000;fill-opacity:1;stroke:none;stroke-width:1px;stroke-linecap:butt;stroke-linejoin:miter;stroke-opacity:1"
       transform="matrix(0.22468918,0.13971081,-0.13971081,0.22468918,10.895476,145.8459)"><flowRegion
         id="flowRegion1138"><rect
           id="rect1140"
           width="321.24301"
           height="88.241081"
           x="279.79776"
           y="3.2635503" /></flowRegion><flowPara
         id="flowPara1142"
         style="font-style:normal;font-variant:normal;font-weight:bold;font-stretch:normal;font-size:32px;font-family:'Nimbus Roman No9 L';-inkscape-font-specification:'Nimbus Roman No9 L, Bold';font-variant-ligatures:normal;font-variant-caps:normal;font-variant-numeric:normal;font-feature-settings:normal;text-align:start;writing-mode:lr-tb;text-anchor:start">Linguistiques</flowPara></flowRoot>    <flowRoot
       xml:space="preserve"
       id="flowRoot1136-6"
       style="font-style:normal;font-weight:normal;font-size:40px;line-height:0%;font-family:sans-serif;letter-spacing:0px;word-spacing:0px;fill:#000000;fill-opacity:1;stroke:none;stroke-width:1px;stroke-linecap:butt;stroke-linejoin:miter;stroke-opacity:1"
       transform="matrix(0.07662118,-0.253246,0.253246,0.07662118,-13.125388,317.57768)"
       inkscape:transform-center-x="-1.1233857"
       inkscape:transform-center-y="0.18271233"><flowRegion
         id="flowRegion1138-8"><rect
           id="rect1140-5"
           width="321.24301"
           height="88.241081"
           x="279.79776"
           y="3.2635503" /></flowRegion><flowPara
         id="flowPara1142-2"
         style="font-style:normal;font-variant:normal;font-weight:bold;font-stretch:normal;font-size:32px;font-family:'Nimbus Roman No9 L';-inkscape-font-specification:'Nimbus Roman No9 L, Bold';font-variant-ligatures:normal;font-variant-caps:normal;font-variant-numeric:normal;font-feature-settings:normal;text-align:start;writing-mode:lr-tb;text-anchor:start">Informatique</flowPara></flowRoot>    <flowRoot
       xml:space="preserve"
       id="flowRoot1136-0"
       style="font-style:normal;font-weight:normal;font-size:40px;line-height:80.00000119%;font-family:sans-serif;letter-spacing:0px;word-spacing:0px;fill:#000000;fill-opacity:1;stroke:none;stroke-width:1px;stroke-linecap:butt;stroke-linejoin:miter;stroke-opacity:1"
       transform="matrix(0.23980778,-0.11178806,0.11178806,0.23980778,-4.6728761,310.45892)"><flowRegion
         id="flowRegion1138-3"
         style="line-height:80.00000119%"><rect
           id="rect1140-7"
           width="321.24301"
           height="88.241081"
           x="279.79776"
           y="3.2635503"
           style="line-height:80.00000119%" /></flowRegion><flowPara
         id="flowPara1142-0"
         style="font-style:normal;font-variant:normal;font-weight:bold;font-stretch:normal;font-size:32px;line-height:80.00000119%;font-family:'Nimbus Roman No9 L';-inkscape-font-specification:'Nimbus Roman No9 L, Bold';font-variant-ligatures:normal;font-variant-caps:normal;font-variant-numeric:normal;font-feature-settings:normal;text-align:start;writing-mode:lr-tb;text-anchor:start">Intelligence </flowPara><flowPara
         style="font-style:normal;font-variant:normal;font-weight:bold;font-stretch:normal;font-size:32px;line-height:80.00000119%;font-family:'Nimbus Roman No9 L';-inkscape-font-specification:'Nimbus Roman No9 L, Bold';font-variant-ligatures:normal;font-variant-caps:normal;font-variant-numeric:normal;font-feature-settings:normal;text-align:start;writing-mode:lr-tb;text-anchor:start"
         id="flowPara1180">artificielle</flowPara></flowRoot>    <flowRoot
       xml:space="preserve"
       id="flowRoot1136-9"
       style="font-style:normal;font-weight:normal;font-size:40px;line-height:0%;font-family:sans-serif;letter-spacing:0px;word-spacing:0px;fill:#000000;fill-opacity:1;stroke:none;stroke-width:1px;stroke-linecap:butt;stroke-linejoin:miter;stroke-opacity:1"
       transform="matrix(0.26449868,-0.00669238,0.00669238,0.26449868,-30.377773,239.05259)"><flowRegion
         id="flowRegion1138-1"><rect
           id="rect1140-3"
           width="321.24301"
           height="88.241081"
           x="279.79776"
           y="3.2635503" /></flowRegion><flowPara
         id="flowPara1142-4"
         style="font-style:normal;font-variant:normal;font-weight:bold;font-stretch:normal;font-size:53.33333206px;font-family:'Nimbus Roman No9 L';-inkscape-font-specification:'Nimbus Roman No9 L, Bold';font-variant-ligatures:normal;font-variant-caps:normal;font-variant-numeric:normal;font-feature-settings:normal;text-align:start;writing-mode:lr-tb;text-anchor:start">TALN</flowPara></flowRoot>  </g>
</svg>
